# xmcd CD database file
#
# Track frame offsets:
#	150
#	13937
#	27740
#	41758
#	57103
#	75251
#	92460
#	104418
#	116508
#	136579
#	149017
#
# Disc length: 2168 seconds
#
# Revision: 2
# Processed by: cddbd v1.5.2PL0 Copyright (c) Steve Scherf et al.
# Submitted via: CDex 1.51
#
DISCID=8d08760b
DTITLE=Damon Bramblett - Damon Bramblett
DYEAR=2000
DGENRE=Country
TTITLE0=Tear Him Down
TTITLE1=Heaven Bound
TTITLE2=Falling Apart
TTITLE3=Nobody Want To Go To The Monn Anymore
TTITLE4=Waiting For The Mail
TTITLE5=1000 Hearts
TTITLE6=Today I Started Drinking Again
TTITLE7=When I Was Blind
TTITLE8=Champaign. IL
TTITLE9=Devil On Your Side
TTITLE10=Wouldn't Havev It Any Other Way
EXTD=YEAR: 2000
EXTT0=
EXTT1=
EXTT2=
EXTT3=
EXTT4=
EXTT5=
EXTT6=
EXTT7=
EXTT8=
EXTT9=
EXTT10=
PLAYORDER=
